<?xml version="1.0" encoding="utf-8"?>
<!-- Generator: Adobe Illustrator 27.3.1, SVG Export Plug-In . SVG Version: 6.00 Build 0)  -->
<svg version="1.1" id="Ebene_1" xmlns="http://www.w3.org/2000/svg" xmlns:xlink="http://www.w3.org/1999/xlink" x="0px" y="0px"
	 viewBox="0 0 500 200" style="enable-background:new 0 0 500 200;" xml:space="preserve">
<style type="text/css">
	.st0{fill:#FFFFFF;}
</style>
<g>
	<path class="st0" d="M276.1,87.6c0-6.2-0.8-11.8-2.3-17c-5.1-17.5-16.4-28.6-33.8-32.9c-5.5-1.4-11.6-2.1-18.7-2.4
		c-16.7-0.6-30.2,0.8-42.4,4.4c-2.8,0.8-5.6,1.6-8.3,2.4c-1.3,0.4-2.5,0.7-3.8,1.1l-2.2,0.6c-0.3,0.1-0.6,0.4-0.6,0.8v117.3
		c0,0.4,0.3,0.7,0.7,0.8l2.6,0.4c0.8,0.1,1.6,0.2,2.4,0.3c1.7,0.3,3.5,0.5,5.3,0.7c4.1,0.5,8.2,0.7,12.3,0.7
		c6.1,0,12.1-0.5,18.1-1.6c1.2-0.2,2.6-0.5,3.7-1.8c1.1-1.3,1.1-2.8,1.1-4l0-11.8c0-22.4,0-45.5,0-68.3c0-0.4,0.3-0.7,0.7-0.8
		c3.9-0.6,7.1-0.5,10,0.3c4,1.1,6.5,3.5,7.8,7.6c1,3.1,1.4,6.6,1.4,11.3l0,14.2c0,15.7,0,31.9,0,47.8c0,2.9,1.6,4.8,4.4,5.3
		c5.9,1.1,12.2,1.6,18.7,1.6c0,0,0,0,0.1,0c7.2,0,13.7-0.6,19.9-1.9l2.4-0.5c0.4-0.1,0.6-0.4,0.6-0.8v-3.6c0-6.2,0-12.4,0-18.7
		C276.2,122.3,276.2,104.8,276.1,87.6z"/>
	<path class="st0" d="M477.4,41.7c-0.6-2.7-2.5-4.2-5.2-4.2c0,0,0,0,0,0c-29.6,0-59.8,0-89,0c0,0,0,0,0,0c-0.1,0-0.3,0-0.4,0
		c0,0,0,0,0,0c-24.2,0-48.8,0-72.5,0l-16.3,0c-0.4,0-0.8,0.3-0.8,0.8v118.8c0,0.1,0,0.3,0,0.4l0,0c-0.2,1.7,0.4,2.8,0.9,3.5
		c0.6,0.7,1.6,1.6,3.4,1.8c1.4,0.2,2.9,0.3,4.3,0.5c2.9,0.4,5.8,0.8,8.8,0.9c2.4,0.1,4.7,0.2,6.9,0.2c6.2,0,11.9-0.5,17.3-1.6
		c4-0.8,4.6-3.8,4.5-5.5c0-8.3,0-16.7,0-24.8l0-4.1c0-0.4,0.3-0.8,0.8-0.8l4.9,0c9.3,0,18.9,0,28.3,0c0,0,0,0,0,0
		c2.9,0,4.9-1.6,5.6-4.4c1.4-6.1,1.8-12.8,1.4-20.3c-0.2-2.8-0.5-5.5-0.9-8.2c-0.2-1.2-0.3-2.4-0.5-3.6l-0.3-2.7
		c0-0.4-0.4-0.7-0.8-0.7H340c-0.4,0-0.8-0.3-0.8-0.8V78c0-0.4,0.3-0.8,0.8-0.8h4.6c7.8,0,15.5,0,23.3,0c0,0,0,0,0.1,0
		c0.2,0,0.5,0,0.7,0c0,0,0,0,0,0c3.6,0,7.3,0,10.9,0c1,0,2.1,0,3.1,0l0.1,0c0.1,0,0.1,0,0.2,0c3.2,0,6.3,0,9.4,0c1.3,0,2.7,0,4,0
		c0.4,0,0.8,0.3,0.8,0.8v79.4c0,1.2,0,2.7,1.1,4c1.2,1.4,2.6,1.6,3.8,1.7l0.1,0c5.7,0.8,11.6,1.6,17.6,1.6c1.3,0,2.6,0,3.9-0.1
		c3.8-0.2,7.5-0.7,11.2-1.1c1.6-0.2,3.1-0.4,4.7-0.5c0.8-0.1,1.4-0.4,1.7-0.6l1.7-0.8c0.3-0.1,0.4-0.4,0.4-0.7V78
		c0-0.4,0.3-0.8,0.8-0.8l4,0c7.7,0,15.7,0,23.6,0c0,0,0,0,0,0c4.1,0,5.3-2.9,5.7-4.6C479.6,62.3,479.5,51.9,477.4,41.7z"/>
	<path class="st0" d="M61.6,164.1c0.9-0.1,1.8-0.1,2.7-0.2c1.9-0.1,3.8-0.4,5.6-0.7c0.8-0.1,1.6-0.2,2.4-0.3l2.7-0.4
		c0.4-0.1,0.7-0.4,0.7-0.8v-41.4c0-0.4,0.3-0.8,0.8-0.8H101c0.4,0,0.8,0.3,0.8,0.8l0,25.2c0,4.2,0,8.4,0,12.6l0,0.1
		c0,3.3,2.2,4.7,4.2,4.9c1.8,0.2,3.6,0.4,5.4,0.6c3.5,0.4,7.1,0.8,10.7,1c1.2,0.1,2.3,0.1,3.5,0.1c5.2,0,10.2-0.7,15.2-1.3
		c0.8-0.1,1.6-0.2,2.4-0.3c1.8-0.2,5-1.3,4.9-5.7c0-33,0-66.5,0-98.9l0-19.4c0-0.3-0.2-0.7-0.6-0.7l-2.2-0.6
		c-10.6-3.1-30.4-3-40.8,0l-2.2,0.7c-0.3,0.1-0.6,0.4-0.6,0.7v37.6c0,0.4-0.3,0.8-0.8,0.8H76.3c-0.4,0-0.8-0.3-0.8-0.8V38.6
		c0-0.4-0.3-0.7-0.7-0.8l-2.6-0.4c-1-0.2-2.1-0.3-3.1-0.5c-2.3-0.4-4.7-0.8-7.2-1c-10.9-0.8-19.7-0.4-28,1.3
		c-3.9,0.8-4.7,3.6-4.7,5.8c0,21.6,0,43.5,0,65.1c0,0.6,0.6,0.9,1.1,0.7c3.1-1.3,5.8-3.2,7.9-6.4c11.5-17,15.2-18.1,15.7-17.9
		c3.6-0.6,8.6-1.3,10.6,3.1c2.1,4.8,7.9,5.9,9.2,11.3c0,0.1,0,0.1,0,0.2c0.1,2.7,1.7,8-1.4,8.6c-5.1,0.9-10.3-0.3-15.3-1.1
		c-2.5-0.8-2.8,1.3-3.7,5c0,0,0,0.1,0,0.1c-3.3,7.7-3.7,7.8,0.2,9.1c0,0,0.1,0,0.1,0c2.1,0.4,3.7,1.6,4.2,4c1.6,4.1-6.7,12.7-7.5,6
		c-0.4-5.4-7.2,1.9-9.1,3.8c-0.1,0.1-0.2,0.3-0.2,0.4c-1.6,9.4-0.4,9.5-7,16.5c-0.2,0.2-0.4,0.7-0.1,0.9c4.8,4.7,2.5,11.4,16.2,11.7
		"/>
</g>
</svg>
